ISO-10303-21;
HEADER;
/* Generated by software containing ST-Developer
 * from STEP Tools, Inc. (www.steptools.com) 
 */

FILE_DESCRIPTION(
/* description */ (''),
/* implementation_level */ '2;1');

FILE_NAME(
/* name */ 'cover_with_grips.stp',
/* time_stamp */ '2026-06-03T02:16:44+03:00',
/* author */ ('SimON'),
/* organization */ (''),
/* preprocessor_version */ 'ST-DEVELOPER v19.2',
/* originating_system */ 'Autodesk Inventor 2024',
/* authorisation */ '');

FILE_SCHEMA (('AUTOMOTIVE_DESIGN { 1 0 10303 214 3 1 1 }'));
ENDSEC;

DATA;
#10=MECHANICAL_DESIGN_GEOMETRIC_PRESENTATION_REPRESENTATION('',(#13),#358);
#11=SHAPE_REPRESENTATION_RELATIONSHIP('SRR','None',#365,#12);
#12=ADVANCED_BREP_SHAPE_REPRESENTATION('',(#14),#357);
#13=STYLED_ITEM('',(#374),#14);
#14=MANIFOLD_SOLID_BREP('Solid1',#142);
#15=PLANE('',#169);
#16=PLANE('',#171);
#17=PLANE('',#172);
#18=PLANE('',#176);
#19=CIRCLE('',#166,12.55);
#20=CIRCLE('',#167,12.55);
#21=CIRCLE('',#168,12.55);
#22=CIRCLE('',#170,13.15);
#23=CIRCLE('',#173,13.15);
#24=CIRCLE('',#175,13.15);
#25=CYLINDRICAL_SURFACE('',#165,12.55);
#26=CYLINDRICAL_SURFACE('',#174,13.15);
#27=FACE_OUTER_BOUND('',#35,.T.);
#28=FACE_OUTER_BOUND('',#36,.T.);
#29=FACE_OUTER_BOUND('',#37,.T.);
#30=FACE_OUTER_BOUND('',#38,.T.);
#31=FACE_OUTER_BOUND('',#39,.T.);
#32=FACE_OUTER_BOUND('',#40,.T.);
#33=FACE_OUTER_BOUND('',#41,.T.);
#34=FACE_OUTER_BOUND('',#42,.T.);
#35=EDGE_LOOP('',(#94,#95,#96,#97,#98));
#36=EDGE_LOOP('',(#99,#100,#101,#102,#103,#104));
#37=EDGE_LOOP('',(#105,#106,#107,#108,#109,#110,#111,#112));
#38=EDGE_LOOP('',(#113,#114,#115,#116));
#39=EDGE_LOOP('',(#117));
#40=EDGE_LOOP('',(#118));
#41=EDGE_LOOP('',(#119,#120,#121,#122,#123,#124,#125,#126,#127));
#42=EDGE_LOOP('',(#128,#129,#130,#131));
#43=LINE('',#235,#49);
#44=LINE('',#260,#50);
#45=LINE('',#311,#51);
#46=LINE('',#338,#52);
#47=LINE('',#342,#53);
#48=LINE('',#352,#54);
#49=VECTOR('',#179,10.);
#50=VECTOR('',#180,10.);
#51=VECTOR('',#181,10.);
#52=VECTOR('',#182,10.);
#53=VECTOR('',#187,12.55);
#54=VECTOR('',#204,13.15);
#55=B_SPLINE_CURVE_WITH_KNOTS('',3,(#222,#223,#224,#225,#226,#227,#228,
#229,#230,#231,#232,#233),.UNSPECIFIED.,.F.,.F.,(4,2,2,2,2,4),(-2.08563697560113,
-1.98549998493962,-1.88536299427812,-1.6850890129551,-1.36395375037783,
-1.04281848780057),.UNSPECIFIED.);
#56=B_SPLINE_CURVE_WITH_KNOTS('',3,(#237,#238,#239,#240,#241,#242,#243,
#244,#245,#246,#247,#248,#249,#250,#251,#252,#253,#254,#255,#256,#257,#258),
 .UNSPECIFIED.,.F.,.F.,(4,2,2,2,2,2,2,2,2,2,4),(0.,0.101146463576623,0.202292927153247,
0.404585854306494,0.726898955696655,1.04921205708682,1.37152515847698,1.69383825986714,
1.89613118702039,1.99727765059701,2.09842411417363),.UNSPECIFIED.);
#57=B_SPLINE_CURVE_WITH_KNOTS('',3,(#261,#262,#263,#264,#265,#266,#267,
#268,#269,#270,#271,#272),.UNSPECIFIED.,.F.,.F.,(4,2,2,2,2,4),(-1.04281848780057,
-0.721683225223299,-0.400547962646032,-0.200273981323016,-0.100136990661508,
0.),.UNSPECIFIED.);
#58=B_SPLINE_CURVE_WITH_KNOTS('',3,(#285,#286,#287,#288,#289,#290,#291,
#292,#293,#294,#295,#296),.UNSPECIFIED.,.F.,.F.,(4,2,2,2,2,4),(1.04281848780057,
1.36395375037783,1.6850890129551,1.88536299427812,1.98549998493962,2.08563697560113),
 .UNSPECIFIED.);
#59=B_SPLINE_CURVE_WITH_KNOTS('',3,(#298,#299,#300,#301,#302,#303,#304,
#305,#306,#307,#308,#309),.UNSPECIFIED.,.F.,.F.,(4,2,2,2,2,4),(0.,0.100136990661508,
0.200273981323016,0.400547962646032,0.721683225223299,1.04281848780057),
 .UNSPECIFIED.);
#60=B_SPLINE_CURVE_WITH_KNOTS('',3,(#313,#314,#315,#316,#317,#318,#319,
#320,#321,#322,#323,#324),.UNSPECIFIED.,.F.,.F.,(4,2,2,2,2,4),(-1.04921205708682,
-0.726898955696656,-0.404585854306494,-0.202292927153247,-0.101146463576623,
0.),.UNSPECIFIED.);
#61=B_SPLINE_CURVE_WITH_KNOTS('',3,(#326,#327,#328,#329,#330,#331,#332,
#333,#334,#335,#336,#337),.UNSPECIFIED.,.F.,.F.,(4,2,2,2,2,4),(-2.09842411417364,
-1.99727765059701,-1.89613118702039,-1.69383825986714,-1.37152515847698,
-1.04921205708682),.UNSPECIFIED.);
#62=VERTEX_POINT('',#220);
#63=VERTEX_POINT('',#221);
#64=VERTEX_POINT('',#234);
#65=VERTEX_POINT('',#236);
#66=VERTEX_POINT('',#259);
#67=VERTEX_POINT('',#283);
#68=VERTEX_POINT('',#284);
#69=VERTEX_POINT('',#297);
#70=VERTEX_POINT('',#310);
#71=VERTEX_POINT('',#312);
#72=VERTEX_POINT('',#325);
#73=VERTEX_POINT('',#340);
#74=VERTEX_POINT('',#349);
#75=EDGE_CURVE('',#62,#63,#55,.T.);
#76=EDGE_CURVE('',#64,#62,#43,.T.);
#77=EDGE_CURVE('',#65,#64,#56,.T.);
#78=EDGE_CURVE('',#66,#65,#44,.T.);
#79=EDGE_CURVE('',#63,#66,#57,.T.);
#80=EDGE_CURVE('',#67,#68,#58,.T.);
#81=EDGE_CURVE('',#69,#67,#59,.T.);
#82=EDGE_CURVE('',#70,#69,#45,.T.);
#83=EDGE_CURVE('',#71,#70,#60,.T.);
#84=EDGE_CURVE('',#72,#71,#61,.T.);
#85=EDGE_CURVE('',#68,#72,#46,.T.);
#86=EDGE_CURVE('',#73,#73,#19,.T.);
#87=EDGE_CURVE('',#73,#71,#47,.T.);
#88=EDGE_CURVE('',#65,#70,#20,.T.);
#89=EDGE_CURVE('',#72,#64,#21,.T.);
#90=EDGE_CURVE('',#62,#68,#22,.T.);
#91=EDGE_CURVE('',#74,#74,#23,.T.);
#92=EDGE_CURVE('',#74,#63,#48,.T.);
#93=EDGE_CURVE('',#69,#66,#24,.T.);
#94=ORIENTED_EDGE('',*,*,#75,.F.);
#95=ORIENTED_EDGE('',*,*,#76,.F.);
#96=ORIENTED_EDGE('',*,*,#77,.F.);
#97=ORIENTED_EDGE('',*,*,#78,.F.);
#98=ORIENTED_EDGE('',*,*,#79,.F.);
#99=ORIENTED_EDGE('',*,*,#80,.F.);
#100=ORIENTED_EDGE('',*,*,#81,.F.);
#101=ORIENTED_EDGE('',*,*,#82,.F.);
#102=ORIENTED_EDGE('',*,*,#83,.F.);
#103=ORIENTED_EDGE('',*,*,#84,.F.);
#104=ORIENTED_EDGE('',*,*,#85,.F.);
#105=ORIENTED_EDGE('',*,*,#86,.F.);
#106=ORIENTED_EDGE('',*,*,#87,.T.);
#107=ORIENTED_EDGE('',*,*,#83,.T.);
#108=ORIENTED_EDGE('',*,*,#88,.F.);
#109=ORIENTED_EDGE('',*,*,#77,.T.);
#110=ORIENTED_EDGE('',*,*,#89,.F.);
#111=ORIENTED_EDGE('',*,*,#84,.T.);
#112=ORIENTED_EDGE('',*,*,#87,.F.);
#113=ORIENTED_EDGE('',*,*,#76,.T.);
#114=ORIENTED_EDGE('',*,*,#90,.T.);
#115=ORIENTED_EDGE('',*,*,#85,.T.);
#116=ORIENTED_EDGE('',*,*,#89,.T.);
#117=ORIENTED_EDGE('',*,*,#86,.T.);
#118=ORIENTED_EDGE('',*,*,#91,.T.);
#119=ORIENTED_EDGE('',*,*,#91,.F.);
#120=ORIENTED_EDGE('',*,*,#92,.T.);
#121=ORIENTED_EDGE('',*,*,#79,.T.);
#122=ORIENTED_EDGE('',*,*,#93,.F.);
#123=ORIENTED_EDGE('',*,*,#81,.T.);
#124=ORIENTED_EDGE('',*,*,#80,.T.);
#125=ORIENTED_EDGE('',*,*,#90,.F.);
#126=ORIENTED_EDGE('',*,*,#75,.T.);
#127=ORIENTED_EDGE('',*,*,#92,.F.);
#128=ORIENTED_EDGE('',*,*,#78,.T.);
#129=ORIENTED_EDGE('',*,*,#88,.T.);
#130=ORIENTED_EDGE('',*,*,#82,.T.);
#131=ORIENTED_EDGE('',*,*,#93,.T.);
#132=(
BOUNDED_SURFACE()
B_SPLINE_SURFACE(1,2,((#210,#211,#212,#213,#214),(#215,#216,#217,#218,#219)),
 .UNSPECIFIED.,.F.,.F.,.F.)
B_SPLINE_SURFACE_WITH_KNOTS((2,2),(3,2,3),(2.85245863424566,3.2875),(-3.14159265358979,
-1.5707963267949,8.88178419699724E-17),.UNSPECIFIED.)
GEOMETRIC_REPRESENTATION_ITEM()
RATIONAL_B_SPLINE_SURFACE(((1.,0.707106781186548,1.,0.707106781186548,1.),
(1.,0.707106781186548,1.,0.707106781186548,1.)))
REPRESENTATION_ITEM('')
SURFACE()
);
#133=(
BOUNDED_SURFACE()
B_SPLINE_SURFACE(1,2,((#273,#274,#275,#276,#277),(#278,#279,#280,#281,#282)),
 .UNSPECIFIED.,.F.,.F.,.F.)
B_SPLINE_SURFACE_WITH_KNOTS((2,2),(3,2,3),(-1.8569362631892E-17,0.435041365754343),
(-3.14159265358979,-1.5707963267949,8.88178419699724E-17),.UNSPECIFIED.)
GEOMETRIC_REPRESENTATION_ITEM()
RATIONAL_B_SPLINE_SURFACE(((1.,0.707106781186548,1.,0.707106781186548,1.),
(1.,0.707106781186548,1.,0.707106781186548,1.)))
REPRESENTATION_ITEM('')
SURFACE()
);
#134=ADVANCED_FACE('',(#27),#132,.T.);
#135=ADVANCED_FACE('',(#28),#133,.T.);
#136=ADVANCED_FACE('',(#29),#25,.F.);
#137=ADVANCED_FACE('',(#30),#15,.T.);
#138=ADVANCED_FACE('',(#31),#16,.F.);
#139=ADVANCED_FACE('',(#32),#17,.T.);
#140=ADVANCED_FACE('',(#33),#26,.T.);
#141=ADVANCED_FACE('',(#34),#18,.T.);
#142=CLOSED_SHELL('',(#134,#135,#136,#137,#138,#139,#140,#141));
#143=DERIVED_UNIT_ELEMENT(#146,1.);
#144=DERIVED_UNIT_ELEMENT(#360,-3.);
#145=DIMENSIONAL_EXPONENTS(0.,1.,0.,0.,0.,0.,0.);
#146=(
CONVERSION_BASED_UNIT('gram',#148)
MASS_UNIT()
NAMED_UNIT(#145)
);
#147=(
MASS_UNIT()
NAMED_UNIT(*)
SI_UNIT(.KILO.,.GRAM.)
);
#148=MASS_MEASURE_WITH_UNIT(MASS_MEASURE(0.001),#147);
#149=DERIVED_UNIT((#143,#144));
#150=MEASURE_REPRESENTATION_ITEM('density measure',
POSITIVE_RATIO_MEASURE(1.),#149);
#151=PROPERTY_DEFINITION_REPRESENTATION(#156,#153);
#152=PROPERTY_DEFINITION_REPRESENTATION(#157,#154);
#153=REPRESENTATION('material name',(#155),#357);
#154=REPRESENTATION('density',(#150),#357);
#155=DESCRIPTIVE_REPRESENTATION_ITEM('Generic','Generic');
#156=PROPERTY_DEFINITION('material property','material name',#367);
#157=PROPERTY_DEFINITION('material property','density of part',#367);
#158=DATE_TIME_ROLE('creation_date');
#159=APPLIED_DATE_AND_TIME_ASSIGNMENT(#160,#158,(#367));
#160=DATE_AND_TIME(#161,#162);
#161=CALENDAR_DATE(2026,3,6);
#162=LOCAL_TIME(0,0,0.,#163);
#163=COORDINATED_UNIVERSAL_TIME_OFFSET(0,0,.BEHIND.);
#164=AXIS2_PLACEMENT_3D('',#209,#177,#178);
#165=AXIS2_PLACEMENT_3D('',#339,#183,#184);
#166=AXIS2_PLACEMENT_3D('',#341,#185,#186);
#167=AXIS2_PLACEMENT_3D('',#343,#188,#189);
#168=AXIS2_PLACEMENT_3D('',#344,#190,#191);
#169=AXIS2_PLACEMENT_3D('',#345,#192,#193);
#170=AXIS2_PLACEMENT_3D('',#346,#194,#195);
#171=AXIS2_PLACEMENT_3D('',#347,#196,#197);
#172=AXIS2_PLACEMENT_3D('',#348,#198,#199);
#173=AXIS2_PLACEMENT_3D('',#350,#200,#201);
#174=AXIS2_PLACEMENT_3D('',#351,#202,#203);
#175=AXIS2_PLACEMENT_3D('',#353,#205,#206);
#176=AXIS2_PLACEMENT_3D('',#354,#207,#208);
#177=DIRECTION('axis',(0.,0.,1.));
#178=DIRECTION('refdir',(1.,0.,0.));
#179=DIRECTION('',(-1.,0.,0.));
#180=DIRECTION('',(1.,0.,0.));
#181=DIRECTION('',(1.,0.,0.));
#182=DIRECTION('',(-1.,0.,0.));
#183=DIRECTION('center_axis',(0.,0.,-1.));
#184=DIRECTION('ref_axis',(-1.,0.,0.));
#185=DIRECTION('center_axis',(0.,0.,1.));
#186=DIRECTION('ref_axis',(-1.,0.,0.));
#187=DIRECTION('',(0.,0.,1.));
#188=DIRECTION('center_axis',(0.,0.,-1.));
#189=DIRECTION('ref_axis',(-1.,0.,0.));
#190=DIRECTION('center_axis',(0.,0.,-1.));
#191=DIRECTION('ref_axis',(-1.,0.,0.));
#192=DIRECTION('center_axis',(0.,0.,1.));
#193=DIRECTION('ref_axis',(1.,0.,0.));
#194=DIRECTION('center_axis',(0.,0.,1.));
#195=DIRECTION('ref_axis',(1.,0.,0.));
#196=DIRECTION('center_axis',(0.,0.,-1.));
#197=DIRECTION('ref_axis',(-1.,0.,0.));
#198=DIRECTION('center_axis',(0.,0.,-1.));
#199=DIRECTION('ref_axis',(-1.,0.,0.));
#200=DIRECTION('center_axis',(0.,0.,-1.));
#201=DIRECTION('ref_axis',(-1.,0.,0.));
#202=DIRECTION('center_axis',(0.,0.,-1.));
#203=DIRECTION('ref_axis',(1.,0.,0.));
#204=DIRECTION('',(0.,0.,1.));
#205=DIRECTION('center_axis',(0.,0.,1.));
#206=DIRECTION('ref_axis',(1.,0.,0.));
#207=DIRECTION('center_axis',(0.,0.,1.));
#208=DIRECTION('ref_axis',(1.,0.,0.));
#209=CARTESIAN_POINT('',(0.,0.,0.));
#210=CARTESIAN_POINT('Ctrl Pts',(-9.66966907396525,8.,4.44089209849862E-16));
#211=CARTESIAN_POINT('Ctrl Pts',(-9.66966907396525,8.,-5.));
#212=CARTESIAN_POINT('Ctrl Pts',(-9.66966907396525,2.77555756156164E-16,
-5.));
#213=CARTESIAN_POINT('Ctrl Pts',(-9.66966907396525,-8.,-5.));
#214=CARTESIAN_POINT('Ctrl Pts',(-9.66966907396525,-8.,-4.44089209849862E-16));
#215=CARTESIAN_POINT('Ctrl Pts',(-13.15,8.,4.44089209849862E-16));
#216=CARTESIAN_POINT('Ctrl Pts',(-13.15,8.,-5.));
#217=CARTESIAN_POINT('Ctrl Pts',(-13.15,2.77555756156164E-16,-5.));
#218=CARTESIAN_POINT('Ctrl Pts',(-13.15,-8.,-5.));
#219=CARTESIAN_POINT('Ctrl Pts',(-13.15,-8.,-4.44089209849862E-16));
#220=CARTESIAN_POINT('',(-10.4365942720794,-8.,0.));
#221=CARTESIAN_POINT('',(-13.15,6.6642739236124E-16,-5.));
#222=CARTESIAN_POINT('Ctrl Pts',(-10.4365942720794,-8.,-1.38777878078145E-16));
#223=CARTESIAN_POINT('Ctrl Pts',(-10.4365942720794,-8.,-0.333789968871693));
#224=CARTESIAN_POINT('Ctrl Pts',(-10.4781154356411,-7.94645699276765,-0.657224738231264));
#225=CARTESIAN_POINT('Ctrl Pts',(-10.6222792501444,-7.75269407039739,-1.27286754177642));
#226=CARTESIAN_POINT('Ctrl Pts',(-10.7246133547413,-7.61241509123699,-1.56512919700497));
#227=CARTESIAN_POINT('Ctrl Pts',(-11.0794163168843,-7.09533744376023,-2.38286930327466));
#228=CARTESIAN_POINT('Ctrl Pts',(-11.3766311369553,-6.61858685220819,-2.84925279104652));
#229=CARTESIAN_POINT('Ctrl Pts',(-12.0528322445319,-5.33396441530735,-3.80489308093794));
#230=CARTESIAN_POINT('Ctrl Pts',(-12.4591583984942,-4.34772444560421,-4.26021248991812));
#231=CARTESIAN_POINT('Ctrl Pts',(-13.0084568060384,-2.21661678515638,-4.85942258120847));
#232=CARTESIAN_POINT('Ctrl Pts',(-13.15,-1.07045087525756,-5.));
#233=CARTESIAN_POINT('Ctrl Pts',(-13.15,0.,-5.));
#234=CARTESIAN_POINT('',(-9.66966907396526,-8.,0.));
#235=CARTESIAN_POINT('',(13.15,-8.,0.));
#236=CARTESIAN_POINT('',(-9.66966907396526,8.,0.));
#237=CARTESIAN_POINT('Ctrl Pts',(-9.66966907396525,8.,2.08166817117217E-16));
#238=CARTESIAN_POINT('Ctrl Pts',(-9.66966907396525,8.,-0.337154878588744));
#239=CARTESIAN_POINT('Ctrl Pts',(-9.71528508582535,7.94552851296004,-0.66169748736797));
#240=CARTESIAN_POINT('Ctrl Pts',(-9.87147619784969,7.75061059637974,-1.27794017267663));
#241=CARTESIAN_POINT('Ctrl Pts',(-9.98180422830707,7.60998905335579,-1.56964744506737));
#242=CARTESIAN_POINT('Ctrl Pts',(-10.3624936290459,7.09257513782153,-2.38585950921648));
#243=CARTESIAN_POINT('Ctrl Pts',(-10.679155215098,6.61650631291191,-2.85115620715294));
#244=CARTESIAN_POINT('Ctrl Pts',(-11.3948615314778,5.33591729121794,-3.80287129957566));
#245=CARTESIAN_POINT('Ctrl Pts',(-11.8225075332302,4.35301790990638,-4.25808715275633));
#246=CARTESIAN_POINT('Ctrl Pts',(-12.4007732896978,2.22289770493927,-4.85829006223148));
#247=CARTESIAN_POINT('Ctrl Pts',(-12.55,1.07437700463387,-5.));
#248=CARTESIAN_POINT('Ctrl Pts',(-12.55,-1.07437700463388,-5.));
#249=CARTESIAN_POINT('Ctrl Pts',(-12.4007732896978,-2.22289770493927,-4.85829006223148));
#250=CARTESIAN_POINT('Ctrl Pts',(-11.8225075332302,-4.35301790990638,-4.25808715275633));
#251=CARTESIAN_POINT('Ctrl Pts',(-11.3948615314778,-5.33591729121794,-3.80287129957566));
#252=CARTESIAN_POINT('Ctrl Pts',(-10.679155215098,-6.61650631291191,-2.85115620715294));
#253=CARTESIAN_POINT('Ctrl Pts',(-10.3624936290459,-7.09257513782153,-2.38585950921648));
#254=CARTESIAN_POINT('Ctrl Pts',(-9.98180422830707,-7.60998905335579,-1.56964744506737));
#255=CARTESIAN_POINT('Ctrl Pts',(-9.87147619784969,-7.75061059637974,-1.27794017267663));
#256=CARTESIAN_POINT('Ctrl Pts',(-9.71528508582535,-7.94552851296004,-0.66169748736797));
#257=CARTESIAN_POINT('Ctrl Pts',(-9.66966907396525,-8.,-0.337154878588744));
#258=CARTESIAN_POINT('Ctrl Pts',(-9.66966907396525,-8.,-2.08166817117217E-16));
#259=CARTESIAN_POINT('',(-10.4365942720794,8.,0.));
#260=CARTESIAN_POINT('',(13.15,8.,0.));
#261=CARTESIAN_POINT('Ctrl Pts',(-13.15,-2.77555756156289E-16,-5.));
#262=CARTESIAN_POINT('Ctrl Pts',(-13.15,1.07045087525756,-5.));
#263=CARTESIAN_POINT('Ctrl Pts',(-13.0084568060384,2.21661678515638,-4.85942258120847));
#264=CARTESIAN_POINT('Ctrl Pts',(-12.4591583984942,4.34772444560421,-4.26021248991812));
#265=CARTESIAN_POINT('Ctrl Pts',(-12.0528322445319,5.33396441530735,-3.80489308093794));
#266=CARTESIAN_POINT('Ctrl Pts',(-11.3766311369553,6.61858685220819,-2.84925279104652));
#267=CARTESIAN_POINT('Ctrl Pts',(-11.0794163168843,7.09533744376023,-2.38286930327466));
#268=CARTESIAN_POINT('Ctrl Pts',(-10.7246133547413,7.61241509123699,-1.56512919700497));
#269=CARTESIAN_POINT('Ctrl Pts',(-10.6222792501444,7.75269407039739,-1.27286754177643));
#270=CARTESIAN_POINT('Ctrl Pts',(-10.4781154356411,7.94645699276765,-0.657224738231268));
#271=CARTESIAN_POINT('Ctrl Pts',(-10.4365942720794,8.,-0.333789968871694));
#272=CARTESIAN_POINT('Ctrl Pts',(-10.4365942720794,8.,1.38777878078145E-16));
#273=CARTESIAN_POINT('Ctrl Pts',(13.15,8.,4.44089209849862E-16));
#274=CARTESIAN_POINT('Ctrl Pts',(13.15,8.,-5.));
#275=CARTESIAN_POINT('Ctrl Pts',(13.15,2.77555756156164E-16,-5.));
#276=CARTESIAN_POINT('Ctrl Pts',(13.15,-8.,-5.));
#277=CARTESIAN_POINT('Ctrl Pts',(13.15,-8.,-4.44089209849862E-16));
#278=CARTESIAN_POINT('Ctrl Pts',(9.66966907396525,8.,4.44089209849862E-16));
#279=CARTESIAN_POINT('Ctrl Pts',(9.66966907396525,8.,-5.));
#280=CARTESIAN_POINT('Ctrl Pts',(9.66966907396525,2.77555756156164E-16,
-5.));
#281=CARTESIAN_POINT('Ctrl Pts',(9.66966907396525,-8.,-5.));
#282=CARTESIAN_POINT('Ctrl Pts',(9.66966907396525,-8.,-4.44089209849862E-16));
#283=CARTESIAN_POINT('',(13.15,-2.4559458650826E-29,-5.));
#284=CARTESIAN_POINT('',(10.4365942720794,-8.,0.));
#285=CARTESIAN_POINT('Ctrl Pts',(13.15,0.,-5.));
#286=CARTESIAN_POINT('Ctrl Pts',(13.15,-1.07045087525756,-5.));
#287=CARTESIAN_POINT('Ctrl Pts',(13.0084568060384,-2.21661678515638,-4.85942258120847));
#288=CARTESIAN_POINT('Ctrl Pts',(12.4591583984942,-4.34772444560421,-4.26021248991812));
#289=CARTESIAN_POINT('Ctrl Pts',(12.0528322445319,-5.33396441530735,-3.80489308093794));
#290=CARTESIAN_POINT('Ctrl Pts',(11.3766311369553,-6.61858685220819,-2.84925279104652));
#291=CARTESIAN_POINT('Ctrl Pts',(11.0794163168843,-7.09533744376023,-2.38286930327466));
#292=CARTESIAN_POINT('Ctrl Pts',(10.7246133547413,-7.61241509123699,-1.56512919700497));
#293=CARTESIAN_POINT('Ctrl Pts',(10.6222792501444,-7.7526940703974,-1.27286754177642));
#294=CARTESIAN_POINT('Ctrl Pts',(10.4781154356411,-7.94645699276765,-0.657224738231263));
#295=CARTESIAN_POINT('Ctrl Pts',(10.4365942720794,-8.,-0.333789968871693));
#296=CARTESIAN_POINT('Ctrl Pts',(10.4365942720794,-8.,-1.38777878078145E-16));
#297=CARTESIAN_POINT('',(10.4365942720794,8.,0.));
#298=CARTESIAN_POINT('Ctrl Pts',(10.4365942720794,8.,1.38777878078145E-16));
#299=CARTESIAN_POINT('Ctrl Pts',(10.4365942720794,8.,-0.333789968871693));
#300=CARTESIAN_POINT('Ctrl Pts',(10.4781154356411,7.94645699276765,-0.657224738231263));
#301=CARTESIAN_POINT('Ctrl Pts',(10.6222792501444,7.75269407039739,-1.27286754177642));
#302=CARTESIAN_POINT('Ctrl Pts',(10.7246133547413,7.61241509123699,-1.56512919700497));
#303=CARTESIAN_POINT('Ctrl Pts',(11.0794163168843,7.09533744376023,-2.38286930327466));
#304=CARTESIAN_POINT('Ctrl Pts',(11.3766311369553,6.61858685220819,-2.84925279104652));
#305=CARTESIAN_POINT('Ctrl Pts',(12.0528322445319,5.33396441530735,-3.80489308093794));
#306=CARTESIAN_POINT('Ctrl Pts',(12.4591583984942,4.34772444560421,-4.26021248991812));
#307=CARTESIAN_POINT('Ctrl Pts',(13.0084568060384,2.21661678515638,-4.85942258120847));
#308=CARTESIAN_POINT('Ctrl Pts',(13.15,1.07045087525756,-5.));
#309=CARTESIAN_POINT('Ctrl Pts',(13.15,-1.11022302462516E-15,-5.));
#310=CARTESIAN_POINT('',(9.66966907396526,8.,0.));
#311=CARTESIAN_POINT('',(13.15,8.,0.));
#312=CARTESIAN_POINT('',(12.55,-1.87868889109012E-15,-5.));
#313=CARTESIAN_POINT('Ctrl Pts',(12.55,-2.22044604925031E-15,-5.));
#314=CARTESIAN_POINT('Ctrl Pts',(12.55,1.07437700463387,-5.));
#315=CARTESIAN_POINT('Ctrl Pts',(12.4007732896978,2.22289770493927,-4.85829006223148));
#316=CARTESIAN_POINT('Ctrl Pts',(11.8225075332302,4.35301790990638,-4.25808715275633));
#317=CARTESIAN_POINT('Ctrl Pts',(11.3948615314778,5.33591729121794,-3.80287129957566));
#318=CARTESIAN_POINT('Ctrl Pts',(10.679155215098,6.61650631291191,-2.85115620715294));
#319=CARTESIAN_POINT('Ctrl Pts',(10.3624936290459,7.09257513782153,-2.38585950921648));
#320=CARTESIAN_POINT('Ctrl Pts',(9.98180422830707,7.60998905335579,-1.56964744506737));
#321=CARTESIAN_POINT('Ctrl Pts',(9.87147619784969,7.75061059637974,-1.27794017267663));
#322=CARTESIAN_POINT('Ctrl Pts',(9.71528508582535,7.94552851296004,-0.661697487367969));
#323=CARTESIAN_POINT('Ctrl Pts',(9.66966907396525,8.,-0.337154878588744));
#324=CARTESIAN_POINT('Ctrl Pts',(9.66966907396525,8.,1.38777878078145E-16));
#325=CARTESIAN_POINT('',(9.66966907396526,-8.,0.));
#326=CARTESIAN_POINT('Ctrl Pts',(9.66966907396525,-8.,-7.63278329429795E-16));
#327=CARTESIAN_POINT('Ctrl Pts',(9.66966907396525,-8.,-0.337154878588746));
#328=CARTESIAN_POINT('Ctrl Pts',(9.71528508582535,-7.94552851296004,-0.661697487367973));
#329=CARTESIAN_POINT('Ctrl Pts',(9.87147619784969,-7.75061059637974,-1.27794017267664));
#330=CARTESIAN_POINT('Ctrl Pts',(9.98180422830707,-7.60998905335579,-1.56964744506737));
#331=CARTESIAN_POINT('Ctrl Pts',(10.3624936290459,-7.09257513782153,-2.38585950921648));
#332=CARTESIAN_POINT('Ctrl Pts',(10.679155215098,-6.61650631291191,-2.85115620715294));
#333=CARTESIAN_POINT('Ctrl Pts',(11.3948615314778,-5.33591729121794,-3.80287129957566));
#334=CARTESIAN_POINT('Ctrl Pts',(11.8225075332302,-4.35301790990638,-4.25808715275633));
#335=CARTESIAN_POINT('Ctrl Pts',(12.4007732896978,-2.22289770493927,-4.85829006223148));
#336=CARTESIAN_POINT('Ctrl Pts',(12.55,-1.07437700463388,-5.));
#337=CARTESIAN_POINT('Ctrl Pts',(12.55,-2.22044604925031E-15,-5.));
#338=CARTESIAN_POINT('',(13.15,-8.,0.));
#339=CARTESIAN_POINT('Origin',(0.,0.,0.));
#340=CARTESIAN_POINT('',(12.55,1.53693173292993E-15,-123.1));
#341=CARTESIAN_POINT('Origin',(0.,0.,-123.1));
#342=CARTESIAN_POINT('',(12.55,-1.53693173292993E-15,0.));
#343=CARTESIAN_POINT('Origin',(0.,0.,0.));
#344=CARTESIAN_POINT('Origin',(0.,0.,0.));
#345=CARTESIAN_POINT('Origin',(0.,0.,0.));
#346=CARTESIAN_POINT('Origin',(0.,0.,0.));
#347=CARTESIAN_POINT('Origin',(0.,0.,-123.1));
#348=CARTESIAN_POINT('Origin',(0.,0.,-124.1));
#349=CARTESIAN_POINT('',(-13.15,0.,-124.1));
#350=CARTESIAN_POINT('Origin',(0.,0.,-124.1));
#351=CARTESIAN_POINT('Origin',(0.,0.,0.));
#352=CARTESIAN_POINT('',(-13.15,1.61041054087877E-15,0.));
#353=CARTESIAN_POINT('Origin',(0.,0.,0.));
#354=CARTESIAN_POINT('Origin',(0.,0.,0.));
#355=UNCERTAINTY_MEASURE_WITH_UNIT(LENGTH_MEASURE(0.01),#359,
'DISTANCE_ACCURACY_VALUE',
'Maximum model space distance between geometric entities at asserted c
onnectivities');
#356=UNCERTAINTY_MEASURE_WITH_UNIT(LENGTH_MEASURE(0.01),#359,
'DISTANCE_ACCURACY_VALUE',
'Maximum model space distance between geometric entities at asserted c
onnectivities');
#357=(
GEOMETRIC_REPRESENTATION_CONTEXT(3)
GLOBAL_UNCERTAINTY_ASSIGNED_CONTEXT((#355))
GLOBAL_UNIT_ASSIGNED_CONTEXT((#359,#361,#362))
REPRESENTATION_CONTEXT('','3D')
);
#358=(
GEOMETRIC_REPRESENTATION_CONTEXT(3)
GLOBAL_UNCERTAINTY_ASSIGNED_CONTEXT((#356))
GLOBAL_UNIT_ASSIGNED_CONTEXT((#359,#361,#362))
REPRESENTATION_CONTEXT('','3D')
);
#359=(
LENGTH_UNIT()
NAMED_UNIT(*)
SI_UNIT(.MILLI.,.METRE.)
);
#360=(
LENGTH_UNIT()
NAMED_UNIT(*)
SI_UNIT(.CENTI.,.METRE.)
);
#361=(
NAMED_UNIT(*)
PLANE_ANGLE_UNIT()
SI_UNIT($,.RADIAN.)
);
#362=(
NAMED_UNIT(*)
SI_UNIT($,.STERADIAN.)
SOLID_ANGLE_UNIT()
);
#363=SHAPE_DEFINITION_REPRESENTATION(#364,#365);
#364=PRODUCT_DEFINITION_SHAPE('',$,#367);
#365=SHAPE_REPRESENTATION('',(#164),#357);
#366=PRODUCT_DEFINITION_CONTEXT('part definition',#371,'design');
#367=PRODUCT_DEFINITION('cov','cov',#368,#366);
#368=PRODUCT_DEFINITION_FORMATION('',$,#373);
#369=PRODUCT_RELATED_PRODUCT_CATEGORY('cov','cov',(#373));
#370=APPLICATION_PROTOCOL_DEFINITION('international standard',
'automotive_design',2009,#371);
#371=APPLICATION_CONTEXT(
'Core Data for Automotive Mechanical Design Process');
#372=PRODUCT_CONTEXT('part definition',#371,'mechanical');
#373=PRODUCT('cov','cov',$,(#372));
#374=PRESENTATION_STYLE_ASSIGNMENT((#375));
#375=SURFACE_STYLE_USAGE(.BOTH.,#378);
#376=SURFACE_STYLE_RENDERING_WITH_PROPERTIES($,#382,(#377));
#377=SURFACE_STYLE_TRANSPARENT(0.);
#378=SURFACE_SIDE_STYLE('',(#379,#376));
#379=SURFACE_STYLE_FILL_AREA(#380);
#380=FILL_AREA_STYLE('',(#381));
#381=FILL_AREA_STYLE_COLOUR('',#382);
#382=COLOUR_RGB('',0.749019607843137,0.749019607843137,0.749019607843137);
ENDSEC;
END-ISO-10303-21;
